<svg width="277" height="81" xmlns="http://www.w3.org/2000/svg" xmlns:xlink="http://www.w3.org/1999/xlink"
    overflow="hidden">
    <g>
        <path
            d="M247.182 42.1322C245.301 42.1322 244.36 43.062 244.36 44.9217 244.36 45.7921 244.595 46.4548 245.066 46.9099 245.536 47.3649 246.134 47.5923 246.859 47.5923 247.584 47.5923 248.241 47.2957 248.829 46.7021L248.829 42.1322ZM111.641 42.1322C109.759 42.1322 108.818 43.062 108.818 44.9217 108.818 45.7921 109.053 46.4548 109.524 46.9099 109.994 47.3649 110.592 47.5923 111.317 47.5923 112.042 47.5923 112.699 47.2957 113.287 46.7021L113.287 42.1322ZM219.577 35.0101C216.95 35.0101 215.637 37.0082 215.637 41.0044 215.637 43.4972 216.147 45.1195 217.166 45.8712 217.832 46.3856 218.499 46.6428 219.165 46.6428 219.831 46.6428 220.42 46.5834 220.929 46.4647L220.929 35.1881C220.459 35.0694 220.008 35.0101 219.577 35.0101ZM189.616 34.2979C188.871 34.2979 188.234 34.5253 187.705 34.9804 187.176 35.4354 186.911 36.0982 186.911 36.9686L186.911 38.8085 190.086 38.8085C191.38 38.8085 192.027 38.1358 192.027 36.7906 192.027 35.1288 191.223 34.2979 189.616 34.2979ZM83.9731 34.2979C83.2282 34.2979 82.5912 34.5253 82.0621 34.9804 81.5329 35.4354 81.2682 36.0982 81.2682 36.9686L81.2682 38.8085 84.4436 38.8085C85.7371 38.8085 86.384 38.1358 86.384 36.7906 86.384 35.1288 85.5803 34.2979 83.9731 34.2979ZM219.9 25.3359C224.428 25.3359 228.162 26.3448 231.102 28.3627L231.102 57.9194C231.102 60.8473 229.926 63.0928 227.574 64.6557 225.222 66.2186 222.203 67 218.518 67 214.833 67 211.541 66.5252 208.64 65.5756 208.248 64.626 208.052 63.7753 208.052 63.0235 208.052 60.4912 208.463 58.6316 209.287 57.4446 211.913 58.592 214.716 59.1658 217.695 59.1658 219.851 59.1658 220.929 58.3942 220.929 56.851L220.929 55.0705C219.244 55.387 217.891 55.5454 216.872 55.5454 213.069 55.5454 210.129 54.3089 208.052 51.836 205.974 49.363 204.935 45.7031 204.935 40.8561 204.935 36.0092 206.297 32.2107 209.022 29.4608 211.746 26.7109 215.372 25.3359 219.9 25.3359ZM248.211 25.2766C252.112 25.2766 254.866 26.1965 256.473 28.0364 258.08 29.8762 258.884 32.5965 258.884 36.197L258.884 45.5744 260.883 45.5744C261.549 45.5744 262.069 45.9702 262.441 46.7615 262.814 47.5528 263 48.6409 263 50.0257 263 51.4106 262.657 52.7757 261.971 54.121 261.285 55.4663 260.354 56.1389 259.178 56.1389 257.061 56.1389 255.356 55.5651 254.062 54.4177 253.474 53.9429 253.023 53.3691 252.71 52.6965 250.906 54.9914 248.104 56.1389 244.301 56.1389 241.439 56.1389 239.029 55.1101 237.069 53.0526 235.109 50.9951 234.129 48.5617 234.129 45.7525 234.129 39.3031 237.951 36.0783 245.595 36.0783L248.829 36.0783 248.829 35.4849C248.829 34.4562 248.662 33.7934 248.329 33.4966 247.996 33.1998 247.222 33.0515 246.006 33.0515 244.517 33.0515 242.4 33.3681 239.656 34.0011 238.558 32.0228 238.009 30.4104 238.009 29.164 238.009 27.9177 238.343 27.1164 239.009 26.7603 241.244 25.7712 244.311 25.2766 248.211 25.2766ZM189.616 25.2766C193.536 25.2766 196.564 26.2855 198.701 28.3035 200.837 30.3214 201.906 32.7745 201.906 35.6629 201.906 42.0728 198.26 45.2777 190.968 45.2777L186.911 45.2777C186.911 46.4647 187.235 47.2858 187.881 47.7407 188.528 48.1958 189.479 48.4233 190.733 48.4233 193.477 48.4233 196.084 47.7903 198.554 46.5241 198.593 46.4845 198.769 46.7615 199.083 47.355 200.024 49.0563 200.494 50.4906 200.494 51.6579 200.494 52.8251 200.122 53.5868 199.377 53.9429 196.907 55.4069 193.732 56.1389 189.851 56.1389 185.97 56.1389 182.697 54.8034 180.031 52.1326 177.366 49.462 176.033 45.7624 176.033 41.0341 176.033 36.3058 177.317 32.4975 179.884 29.6092 182.452 26.7208 185.696 25.2766 189.616 25.2766ZM133.598 25.2766C135.01 25.2766 136.372 25.6525 137.685 26.4042 138.998 27.156 139.792 27.8682 140.066 28.5408 142.497 26.3647 145.192 25.2766 148.152 25.2766 151.111 25.2766 153.493 26.2064 155.296 28.0661 157.413 26.2064 159.961 25.2766 162.94 25.2766 169.408 25.2766 172.642 29.253 172.642 37.2061L172.642 55.2486C172.642 55.5256 170.967 55.6641 167.615 55.6641 164.263 55.6641 162.587 55.486 162.587 55.1299L162.587 37.8588C162.587 35.8805 161.941 34.8914 160.647 34.8914 159.941 34.8914 159.04 35.3266 157.942 36.197L157.942 55.2486C157.942 55.5256 156.266 55.6641 152.915 55.6641 149.563 55.6641 147.887 55.486 147.887 55.1299L147.887 37.8588C147.887 35.8805 147.24 34.8914 145.947 34.8914 145.28 34.8914 144.398 35.3266 143.301 36.197L143.301 55.1892C143.301 55.585 141.625 55.7828 138.273 55.7828 134.921 55.7828 133.246 55.5651 133.246 55.1299L133.246 35.7222 131.776 35.7222C130.482 35.7222 129.835 34.3572 129.835 31.6271 129.835 30.4005 130.07 29.1541 130.541 27.888 131.168 26.147 132.187 25.2766 133.598 25.2766ZM112.67 25.2766C116.57 25.2766 119.324 26.1965 120.931 28.0364 122.538 29.8762 123.342 32.5965 123.342 36.197L123.342 45.5744 125.341 45.5744C126.008 45.5744 126.527 45.9702 126.9 46.7615 127.272 47.5528 127.458 48.6409 127.458 50.0257 127.458 51.4106 127.115 52.7757 126.429 54.121 125.743 55.4663 124.812 56.1389 123.636 56.1389 121.519 56.1389 119.814 55.5651 118.52 54.4177 117.932 53.9429 117.481 53.3691 117.168 52.6965 115.365 54.9914 112.562 56.1389 108.759 56.1389 105.898 56.1389 103.487 55.1101 101.527 53.0526 99.5667 50.9951 98.5867 48.5617 98.5867 45.7525 98.5867 39.3031 102.409 36.0783 110.053 36.0783L113.287 36.0783 113.287 35.4849C113.287 34.4562 113.12 33.7934 112.787 33.4966 112.454 33.1998 111.68 33.0515 110.465 33.0515 108.975 33.0515 106.858 33.3681 104.114 34.0011 103.016 32.0228 102.468 30.4104 102.468 29.164 102.468 27.9177 102.801 27.1164 103.467 26.7603 105.702 25.7712 108.769 25.2766 112.67 25.2766ZM83.9731 25.2766C87.8932 25.2766 90.9214 26.2855 93.0579 28.3035 95.1943 30.3214 96.2625 32.7745 96.2625 35.6629 96.2625 42.0728 92.6169 45.2777 85.3255 45.2777L81.2682 45.2777C81.2682 46.4647 81.5917 47.2858 82.2384 47.7407 82.8852 48.1958 83.8358 48.4233 85.0903 48.4233 87.8344 48.4233 90.4412 47.7903 92.9109 46.5241 92.95 46.4845 93.1264 46.7615 93.4401 47.355 94.3809 49.0563 94.8513 50.4906 94.8513 51.6579 94.8513 52.8251 94.4789 53.5868 93.7341 53.9429 91.2645 55.4069 88.0892 56.1389 84.2083 56.1389 80.3274 56.1389 77.0541 54.8034 74.3885 52.1326 71.7229 49.462 70.3899 45.7624 70.3899 41.0341 70.3899 36.3058 71.6738 32.4975 74.2415 29.6092 76.8091 26.7208 80.053 25.2766 83.9731 25.2766ZM50.8779 25.2766C52.642 25.2766 54.1121 25.8206 55.288 26.9087 56.4641 27.9968 57.052 29.2333 57.052 30.6182 57.8753 28.9959 58.9827 27.7 60.3744 26.7306 61.766 25.7612 63.187 25.2766 64.6374 25.2766 66.9111 25.2766 68.2832 25.8701 68.7535 27.0571 68.8711 27.3736 68.9299 27.8385 68.9299 28.4518 68.9299 29.0652 68.7438 30.1631 68.3714 31.7458 67.9989 33.3285 67.6167 34.4759 67.2247 35.1881 66.8326 35.9003 66.5975 36.2564 66.519 36.2564 66.4407 36.2564 66.0781 36.108 65.4313 35.8113 64.7844 35.5145 64.2062 35.3662 63.6967 35.3662 62.207 35.3662 61.4621 36.5532 61.4621 38.9272L61.4621 55.486C61.4621 55.763 59.6785 55.9015 56.1113 55.9015 52.544 55.8224 50.7603 55.6641 50.7603 55.4266L50.7603 35.7222 49.1727 35.7222C48.5455 35.7222 48.0457 35.3365 47.6732 34.5649 47.3009 33.7934 47.1147 32.8339 47.1147 31.6864 47.1147 27.4132 48.3691 25.2766 50.8779 25.2766ZM24.2898 25.2766 24.2898 43.0224C24.2898 43.8533 24.3486 44.3775 24.4662 44.5952 24.5838 44.8128 24.9367 44.9217 25.5247 44.9217 27.6807 44.9217 29.3173 44.1105 30.4345 42.4883 31.5518 40.866 32.1104 38.1655 32.1104 34.3869 32.1104 30.6082 31.5322 28.1452 30.3757 26.9977 29.2193 25.8503 27.3866 25.2766 24.8779 25.2766ZM15.6461 14 25.4659 14C31.6988 14 36.4323 15.5827 39.6663 18.748 42.9004 21.9134 44.5174 26.8988 44.5174 33.7043 44.5174 48.265 38.3629 55.5454 26.0538 55.5454L15.9989 55.5454C13.9996 55.5454 13 54.6353 13 52.8152L13 17.2049C13 16.2157 13.2449 15.4343 13.7349 14.8605 14.225 14.2868 14.8621 14 15.6461 14Z"
            fill="#000" />
    </g>
</svg>