<svg width="666" height="667" xmlns="http://www.w3.org/2000/svg" xmlns:xlink="http://www.w3.org/1999/xlink" xml:space="preserve" overflow="hidden"><defs><clipPath id="clip0"><rect x="1263" y="657" width="666" height="667"/></clipPath></defs><g clip-path="url(#clip0)" transform="translate(-1263 -657)"><path d="M1263 990.5C1263 806.313 1412.09 657 1596 657 1779.91 657 1929 806.313 1929 990.5 1929 1174.69 1779.91 1324 1596 1324 1412.09 1324 1263 1174.69 1263 990.5Z" fill="#3B206D" fill-rule="evenodd"/><path d="M1439.85 960.213 1437.33 1073.46C1452.72 1072.5 1465.28 1067.5 1475.02 1058.47 1487.28 1047.27 1493.42 1030.78 1493.42 1008.98 1493.42 991.28 1487.7 978.215 1476.28 969.786 1466.78 962.802 1454.64 959.61 1439.85 960.213ZM1579.55 845.877 1682.89 845.877C1686.5 854.668 1692.69 868.877 1701.47 888.505 1708.2 902.473 1717.4 918.97 1729.06 937.996 1734.23 929.807 1743.73 912.889 1757.56 887.24 1762.49 877.728 1768.8 863.94 1776.5 845.877L1871 845.877C1869.32 871.165 1866.85 917.284 1863.61 984.236 1861.92 1025.42 1860.66 1071.78 1859.82 1123.32L1794.53 1123.32 1792.73 1038.24 1729.06 1130 1660.35 1038.96 1658.55 1123.32 1593.62 1123.32C1592.78 1095.74 1591.15 1049.14 1588.75 983.513 1587.07 945.702 1584 899.824 1579.55 845.877ZM1402.7 841C1453.32 841 1492.94 852.801 1521.55 876.403 1552.09 901.69 1567.36 938.477 1567.36 986.764 1567.36 1030.23 1553.89 1064.43 1526.96 1089.36 1499.19 1115.25 1460.05 1128.19 1409.55 1128.19 1377.09 1128.19 1352.02 1126.57 1334.35 1123.32L1329.48 989.113C1327.91 954.673 1325.09 907.169 1321 846.599 1347.09 842.867 1374.32 841 1402.7 841Z" fill="#D9D9D9" fill-rule="evenodd"/></g></svg>