<svg xmlns="http://www.w3.org/2000/svg" viewBox="245 333 675 498" fill="currentColor"
    class="size-10 flex-shrink-0">
    <path
        d="M 570 333 L 568.554 334.671 L 567.449 336.16 C 566.583 337.419 565.774 338.716 564.949 340.002 L 562.997 343 L 559.691 348 L 556.495 353 L 554.505 356 L 551.306 361 L 549.279 364 L 545.72 369 L 541.576 375 L 539.424 378 L 536.67 382 L 532.667 388 L 528.692 394 L 524.308 401 L 520.333 407 L 513.003 418 L 510.424 422 L 507.921 426 C 506.58 428.041 505.118 429.998 503.72 432 C 502.109 434.307 500.56 436.658 499 439 L 495.695 444 L 494.45 446 C 493.078 448.341 491.771 450.718 490.302 453 C 488.989 455.039 487.565 457.002 486.191 459 C 484.819 460.997 483.501 463.029 482.091 465 L 478.427 470 C 476.321 472.949 474.355 475.995 472.33 479 L 470.283 482 L 467.515 486 L 464.953 490 L 462.424 494 L 459.319 499 L 455.495 505 L 453.505 508 L 451.59 511 L 449.127 515 L 447.29 518 C 446.396 519.369 445.421 520.676 444.464 522 L 442.347 525 L 440.333 528 L 437.691 532 L 434.495 537 L 432.494 540 L 429.809 544 C 428.435 545.999 427.019 547.967 425.695 550 L 421.947 556 L 418.053 562 L 414.308 568 L 410.334 574 L 408.37 577 L 407.144 579 C 405.987 581.009 404.867 583.038 403.63 585 L 401.666 588 L 397.692 594 L 394.576 599 L 391.424 604 L 388.308 609 L 385.667 613 L 380.344 621 L 378.424 624 L 375.308 629 L 370.695 636 L 369.45 638 L 366.55 643 C 365.946 644.017 365.299 645.008 364.655 646 C 362.04 650.026 359.292 653.964 356.692 658 L 352.947 664 L 348.425 671 L 344.811 676.911 L 342 681.285 L 339.775 684.925 L 336.269 690.17 L 334.47 693.015 L 332.504 696 L 329.309 701 L 326.692 705 L 324.203 709 L 321.772 713 L 317.217 720 L 313.424 726 L 311.576 729 L 307.783 735 C 306.062 737.691 304.273 740.338 302.507 743 L 300.529 746 L 297.471 751 L 295.493 754 L 293.507 757 L 291.529 760 L 288.471 765 L 286.493 768 L 284.507 771 L 282.53 774 L 281.308 776 L 279.54 779 L 278.252 781 L 275.424 785 L 273.344 788 L 269.975 793 L 266.505 798 L 264.496 800.985 L 263.13 802.911 C 262.273 804.078 261.393 805.228 260.576 806.424 L 256.95 812.004 C 256.248 813.022 255.513 814.014 254.768 815 L 252.488 818 L 251.09 820 C 250.229 821.318 249.404 822.657 248.58 823.998 C 247.799 825.269 246.999 826.531 246.281 827.839 L 245.812 828.841 L 245.552 829.329 L 245 831 L 680 831 L 679.346 829.64 L 679.005 829.246 L 678.39 828.421 C 676.971 826.896 675.475 825.45 673.995 823.985 C 672.026 822.035 670.079 820.062 668.039 818.184 L 663.576 814.255 L 660.911 811.816 L 656.999 808.086 C 656.016 807.178 655.014 806.297 654 805.424 L 651 802.83 C 648.95 800.976 647.027 798.988 645.015 797.093 L 642.171 794.514 L 639.615 792.269 C 638.228 791.01 636.908 789.686 635.561 788.385 C 633.768 786.653 631.953 784.942 630.086 783.29 C 629.219 782.523 628.36 781.721 627.424 781.036 C 626.621 780.449 625.797 779.928 624.83 779.654 L 622.961 779.43 L 621.985 779.482 L 620.996 779.595 L 619 779.831 L 617 779.961 L 614 779.999 L 610 780 L 599 780 L 538 780 L 338 780 L 338.888 778.329 L 339.201 777.841 L 339.802 776.839 L 341.671 773.995 L 345.025 769 C 346.391 767.007 347.81 765.053 349.086 763 L 352.064 758 L 355.308 753 L 357.189 750 C 359.029 747.003 360.788 743.958 362.692 741 L 365.333 737 L 368.025 733 L 371.484 728 C 373.437 725.055 375.147 721.959 377.078 719 L 379.809 715 L 381.833 712 L 384.495 708 L 388.344 702 L 396.309 690 L 399.505 685 L 401.495 682 L 405.319 676 L 409.692 669 L 414.947 661 L 417.424 657 L 419.953 653 L 421.861 650 L 423.884 647 L 425.972 644 L 427.949 641 L 430.515 637 L 434.645 631 C 435.955 629.031 437.176 627.008 438.424 625 L 440.344 622 L 446.308 613 L 450.078 607 L 453.459 602 C 454.509 600.366 455.461 598.671 456.449 597 L 457.695 595 L 460.333 591 L 464.333 585 C 466.331 582.004 468.352 579.023 470.309 576 L 473.505 571 L 476.139 567 C 478.037 564.028 479.771 560.955 481.695 558 C 482.576 556.647 483.49 555.316 484.424 554 C 485.602 552.34 486.798 550.696 487.924 549 L 490.504 545 L 492.471 542 L 495.529 537 L 497.496 534 L 501.316 528 L 502.551 526.004 C 503.494 524.422 504.411 522.825 505.424 521.286 L 507.811 517.83 L 510.344 513.996 L 513 510 C 514.994 507.008 517.02 504.036 518.947 501 L 521.424 497 L 523.95 493 L 526.424 489 L 528.95 485 L 532.053 480 L 536.656 473 L 540.555 467 L 543.319 463 L 545.934 459 L 547.978 456 C 549.102 454.343 550.223 452.683 551.308 451 L 555.053 445 L 558.308 440 L 561.435 435 C 562.736 432.964 564.134 430.996 565.495 429 L 567.49 426.005 L 569.364 423.16 L 569.931 422.159 L 570.242 421.671 L 571 420 L 573 420 L 573.729 421.671 L 574.531 423.16 C 575.475 424.804 576.468 426.42 577.516 428 L 581.645 434 C 582.955 435.969 584.173 437.993 585.424 440 L 587.319 443 L 589.218 446 L 591.194 449 L 593.922 453 L 597.053 458 C 598.122 459.683 599.229 461.34 600.333 463 L 602.344 466 L 604.424 469 C 605.843 470.993 607.288 472.964 608.645 475 C 610.395 477.625 611.973 480.357 613.695 483 C 614.577 484.353 615.492 485.682 616.424 487 L 619.255 491 L 622.505 496 L 624.506 499 L 626.505 502 L 630.656 508 L 636.025 516 L 639.485 521 L 643.344 527 L 647.947 534 L 651.695 540 C 653.019 542.033 654.435 544.001 655.809 546 L 659.163 551 L 661.092 554 L 663.54 558 C 664.639 559.698 665.832 561.333 666.975 563 L 671 569 L 685 590 L 687.656 593.996 L 690.189 597.83 L 693.203 602.17 L 696.344 607.001 L 701.67 615 L 703.717 618 L 706.485 622 L 709.691 627 L 714.333 634 L 717.025 638 L 720.495 643 L 722.494 646 L 725.142 650 L 728.355 655 L 732.485 661 L 736.355 667 L 738.424 670 L 741.255 674 C 742.361 675.636 743.38 677.325 744.424 679 L 746.344 682 L 751.656 690 L 755.505 696 L 757.506 699 L 759.505 702 L 762.975 707 C 765.017 709.977 766.998 712.996 769 716 C 770.775 718.663 772.57 721.314 774.309 724 L 777.505 729 L 779.495 732 L 782.691 737 L 785.305 741 L 787.142 744 C 787.934 745.339 788.694 746.696 789.544 748 C 790.664 749.719 791.902 751.356 793.127 753 C 794.858 755.324 796.614 757.628 798.279 760 C 799.666 761.976 800.994 763.992 802.333 766 L 806.309 772 L 809.505 777 L 811.506 780 L 813.505 783 C 814.636 784.669 815.824 786.301 816.911 788 C 817.956 789.632 818.884 791.33 819.864 793 C 820.462 794.02 821.091 795.017 821.748 796 C 822.657 797.358 823.631 798.67 824.579 800 L 828.884 806 C 830.589 808.317 832.339 810.596 833.921 813 L 836.424 817 C 837.698 819.021 838.987 821.036 840.348 823 C 841.05 824.013 841.763 825.007 842.518 825.981 L 843.326 826.941 L 845.093 828.682 L 847.015 829.972 L 848.004 830.397 L 849.001 830.682 L 851 830.941 C 852.333 831.002 853.665 830.997 855 831 L 862 831 L 904 831 L 903.387 829.64 L 903.094 829.246 L 902.563 828.421 L 900.607 825.906 C 899.353 824.287 898.103 822.664 896.909 821 C 895.26 818.702 893.731 816.321 892.116 814 L 888.579 809 C 887.162 807.016 885.724 805.05 884.38 803.015 L 881.434 798.424 L 879.63 795.83 L 877.666 792.985 L 873.667 787 L 867.667 778 L 865.05 774 L 862.485 770 L 859.024 765 L 856.976 762 L 853.505 757 L 851.506 754 L 849.505 751 L 842.495 740 L 840.494 737 L 834.507 728 L 833.181 726 L 831.297 723 L 829.471 720 L 827.504 717 L 826.217 715 L 822.413 709 L 820.485 706 C 818.916 703.647 817.239 701.37 815.695 699 L 812.576 694 L 810.656 691 C 809.332 688.976 807.972 686.975 806.576 685 L 804.424 682 C 803.491 680.683 802.577 679.353 801.695 678 L 797.947 672 L 794.064 666 C 792.832 664.018 791.721 661.963 790.459 660 L 787.078 655 L 783.922 650 L 779.861 644 L 777.309 640 L 774.053 635 L 770.947 630 L 767.691 625 L 764.495 620 L 762.494 617 L 759.833 613 L 756.495 608 L 753.717 604 L 751.67 601 L 743 588 L 739.656 583 L 735.515 577 L 732.309 572 L 727.691 565 L 724.485 560 L 721.717 556 L 719.67 553 L 715.667 547 L 707.667 535 L 704.33 530 L 702.283 527 L 699.515 523 C 697.972 520.685 696.54 518.299 694.971 516 L 690.029 509 C 689.132 507.685 688.266 506.35 687.424 505 C 686.38 503.325 685.364 501.633 684.254 500 C 682.863 497.953 681.355 495.99 679.884 494 C 678.91 492.682 677.957 491.349 677.026 490 C 675.888 488.351 674.785 486.678 673.691 485 L 671.142 481 L 668.505 477 L 665.306 472 C 664.421 470.649 663.51 469.317 662.576 468 C 661.398 466.341 660.196 464.701 659.079 463 L 656.576 459 C 655.516 457.318 654.436 455.651 653.329 454 L 649.191 448 L 646.495 444 L 643.025 439 L 636.974 430 L 632.745 424 L 629.485 419 L 626.717 415 C 625.575 413.345 624.446 411.682 623.344 410 L 621.414 407 L 619.481 404 C 618.791 402.982 618.076 401.982 617.336 401 C 616.077 399.333 614.775 397.699 613.559 396 L 611.498 393 L 608.025 388 L 603.974 382 L 600.424 377 C 598.57 374.378 596.774 371.712 595.053 369 L 591.305 363 C 589.761 360.63 588.084 358.353 586.515 356 L 583.95 352 L 581.329 348 L 576.505 341 L 573.818 337.059 L 572.475 335.321 L 571.711 334.517 L 571.343 334.086 L 570 333 M 863 493 L 862.327 494.671 L 861.586 496.16 L 860.533 498.025 L 858.086 502 L 854.714 508 L 852.85 511 C 852.024 512.323 851.211 513.653 850.425 515 L 848.15 519 L 845.85 523 L 844.139 526 C 842.756 528.358 841.233 530.629 839.872 533 L 837.694 537 L 836.573 539 L 833.6 544 L 830.575 549 C 829.741 550.35 828.87 551.676 827.997 553 L 822.692 561 L 819.576 566 L 817.05 570 L 815.203 573 L 812.154 577.995 L 810.4 580.84 L 809.892 581.841 L 809.609 582.329 L 809 584 L 920 584 L 919.571 582.329 L 918.999 580.84 L 918.083 578.975 L 916.931 576.998 C 915.65 574.979 914.326 572.99 913 571 L 907 562 C 905.454 559.68 903.899 557.367 902.425 555 C 901.398 553.35 900.401 551.68 899.424 550 C 898.262 547.999 897.156 545.967 895.936 544 L 891.425 537 C 889.16 533.363 887.047 529.632 884.772 526 L 880.911 520 L 878.576 516 L 877.397 514 L 871.4 504 L 869.012 500.002 L 867.319 497.045 L 866.84 496.16 L 866.269 495.159 L 866.014 494.671 L 865 493 L 863 493 M 582 589 L 582.301 590.671 L 582.859 592.16 L 583.879 594.025 L 585.254 596.002 L 588.346 600 L 590.575 603 L 593.421 606.961 L 594.859 608.83 L 596.975 611.424 L 598.341 613.17 L 601.895 618.001 C 603.661 620.349 605.531 622.619 607.255 625 L 610.025 629 C 610.958 630.348 611.914 631.679 612.884 633 L 616.576 638 L 619.421 641.961 L 622.201 645.576 L 622.829 646.424 L 623.986 648.17 L 625.094 650.039 L 626.872 653.001 L 629.495 657 L 630.783 659 L 635.858 667 L 639.142 672 L 642.344 677 L 646.333 683 L 653.667 694 C 655.219 696.329 656.793 698.646 658.308 701 C 660.851 704.95 663.149 709.05 665.692 713 C 668.506 717.371 671.493 721.63 674.308 726 L 677.424 731 L 680.003 735 L 687.333 746 L 691.308 752 L 695.053 758 L 698.947 764 L 702.692 770 C 705.507 774.37 708.493 778.63 711.308 783 L 715.692 790 L 720.947 798 L 723.424 802 L 726.003 806 L 728.656 809.996 L 731.189 813.83 L 734.149 818.13 L 735.27 819.87 L 737.463 823.286 L 739.7 826.97 L 740.812 828.842 L 741.116 829.329 L 742 831 L 805 831 L 804.361 829.329 L 804.044 828.841 L 803.48 827.839 C 802.826 826.864 802.107 825.936 801.406 824.995 L 798.428 821 C 797.25 819.358 796.126 817.679 795.001 816 L 791 810 L 781.667 796 L 776.344 788 L 774.424 785 L 771.308 780 L 768 775 L 764 769 L 755.333 756 C 753.553 753.33 751.796 750.642 749.974 748 L 745.72 742 C 744.567 740.35 743.451 738.674 742.333 737 L 739.692 733 L 736.576 728 L 733.449 723 L 731.139 719 L 729.305 716 L 727.333 713 C 725.564 710.34 723.763 707.699 722.053 705 C 720.174 702.033 718.425 698.985 716.576 696 L 714.05 692 L 711.576 688 L 709.05 684 L 705.947 679 C 704.879 677.317 703.771 675.66 702.667 674 L 699.333 669 C 698.23 667.342 697.116 665.691 696.064 664 L 692.471 658 L 690.532 655 L 689.333 653 C 688.378 651.345 687.538 649.627 686.533 648 C 685.899 646.972 685.22 645.979 684.514 645 L 681.569 641 C 680.429 639.368 679.391 637.669 678.309 636 L 673.692 629 L 670.576 624 L 667.449 619 L 664.55 614 C 663.946 612.983 663.299 611.992 662.655 611 L 658.692 605 L 654.947 599 L 651.71 594.025 L 650.556 592.16 L 650.019 591.159 L 649.732 590.671 L 649 589 L 582 589 M 520 633 L 518.96 634.671 L 517.562 637.045 L 512.797 645 L 510.95 648 L 508.449 652 L 505.551 657 L 502.449 662 L 499.576 667 L 497.2 671 L 495.388 674 L 493.495 677 L 490.858 681 L 485.783 689 L 484.496 691 L 482.53 694 L 479.552 699 L 477.681 701.996 L 474.654 706.714 L 473 709.286 L 470.129 714.004 C 469.121 715.61 468.049 717.172 467.142 718.839 L 466.468 720.329 L 466 722 L 578 722 L 577.1 720.329 L 576.773 719.841 L 576.144 718.839 L 573.421 714.998 L 570.579 711 L 568.424 708 L 565.671 704 L 563.691 701 L 561.142 697 L 558.505 693 L 555.309 688 C 553.352 684.977 551.33 681.996 549.333 679 L 546.692 675 L 543.576 670 L 541.681 667 L 538.576 662 L 535.424 657 L 531.189 650 L 528.05 645 C 526.811 643.02 525.613 641.016 524.425 639.005 C 523.696 637.77 523.002 636.511 522.2 635.321 L 521.546 634.517 L 521.246 634.086 L 520 633"
        transform="matrix(1, 0, 0, 1, 1.4210854715202004e-14, 0)"></path>
</svg>